<svg id="Capa_1" data-name="Capa 1" xmlns="http://www.w3.org/2000/svg" viewBox="0 0 163.08 159.78"><defs><style>.cls-1{fill:#1f2243;}</style></defs><path class="cls-1" d="M81.54,150.94c-1.05,0-2.11,0-3.15-.06a.38.38,0,0,1,0-.76c1,0,2.07.06,3.11.06a69.5,69.5,0,0,0,43.84-15.34.38.38,0,1,1,.48.59,70.68,70.68,0,0,1-44.32,15.51ZM65.86,149.2h-.09a71.06,71.06,0,0,1-41.68-27.48.38.38,0,0,1,.08-.53.38.38,0,0,1,.54.08,70.3,70.3,0,0,0,41.23,27.19.38.38,0,0,1,.29.45A.38.38,0,0,1,65.86,149.2Zm68.91-22.44a.38.38,0,0,1-.25-.1.38.38,0,0,1,0-.53,70.27,70.27,0,0,0,17.34-46.24v-.16a.38.38,0,1,1,.76,0v.16a71,71,0,0,1-17.53,46.74A.39.39,0,0,1,134.77,126.76ZM17.88,111a.38.38,0,0,1-.34-.22,70.36,70.36,0,0,1-7-30.9A71.39,71.39,0,0,1,13,61.07a.37.37,0,0,1,.46-.26.37.37,0,0,1,.27.47,70.52,70.52,0,0,0-2.49,18.61,69.64,69.64,0,0,0,7,30.57.38.38,0,0,1-.18.51A.47.47,0,0,1,17.88,111ZM151.06,67.5a.38.38,0,0,1-.37-.32,70.23,70.23,0,0,0-25.43-42.33.38.38,0,0,1,.47-.6,70.91,70.91,0,0,1,25.7,42.8.37.37,0,0,1-.3.44ZM17.81,49.69a.47.47,0,0,1-.16,0,.38.38,0,0,1-.18-.51,71.14,71.14,0,0,1,36-34.55.38.38,0,1,1,.3.69A70.52,70.52,0,0,0,18.15,49.47.37.37,0,0,1,17.81,49.69ZM114.91,18a.39.39,0,0,1-.18,0A70.38,70.38,0,0,0,81.54,9.6a71.1,71.1,0,0,0-15.76,1.77.38.38,0,0,1-.46-.28.39.39,0,0,1,.29-.46,71.38,71.38,0,0,1,49.48,6.61.38.38,0,0,1,.16.52A.38.38,0,0,1,114.91,18Z"/></svg>