<svg id="Capa_1" data-name="Capa 1" xmlns="http://www.w3.org/2000/svg" viewBox="0 0 163.08 159.78"><defs><style>.cls-1{fill:#71af50;}</style></defs><path class="cls-1" d="M81.57,133a.38.38,0,0,1,0-.76,51.82,51.82,0,0,0,32.63-11.43.38.38,0,0,1,.54,0,.39.39,0,0,1-.06.54A52.6,52.6,0,0,1,81.57,133Zm-11.73-1.3h-.09A53.29,53.29,0,0,1,40,113.05a.38.38,0,0,1,.06-.53.38.38,0,0,1,.54.06A52.52,52.52,0,0,0,69.92,131a.4.4,0,0,1,.29.46A.38.38,0,0,1,69.84,131.72Zm53-18.57a.43.43,0,0,1-.24-.08.39.39,0,0,1-.06-.54,51.78,51.78,0,0,0,11.42-32.64v-.11a.38.38,0,0,1,.76,0v.11A52.63,52.63,0,0,1,123.09,113,.41.41,0,0,1,122.79,113.15ZM34,103.21a.38.38,0,0,1-.34-.21,53.26,53.26,0,0,1-4-34.86.37.37,0,0,1,.45-.29.37.37,0,0,1,.29.45,52.92,52.92,0,0,0-1.29,11.59,51.92,51.92,0,0,0,5.2,22.78.38.38,0,0,1-.17.5A.35.35,0,0,1,34,103.21ZM133,68.43a.38.38,0,0,1-.37-.3,52.54,52.54,0,0,0-18.46-29.24.38.38,0,0,1-.07-.54.39.39,0,0,1,.54-.06A53.3,53.3,0,0,1,133.32,68a.38.38,0,0,1-.28.46Zm-99-11a.47.47,0,0,1-.17,0,.38.38,0,0,1-.18-.51A53.5,53.5,0,0,1,58.41,32.05a.38.38,0,0,1,.33.69A52.63,52.63,0,0,0,34.32,57.23.38.38,0,0,1,34,57.45ZM104.35,32.7a.33.33,0,0,1-.17,0,51.82,51.82,0,0,0-22.64-5.13A52.5,52.5,0,0,0,69.8,28.85a.38.38,0,0,1-.45-.29.39.39,0,0,1,.28-.46,54,54,0,0,1,11.91-1.33,52.74,52.74,0,0,1,23,5.2.38.38,0,0,1-.16.73Z"/></svg>