<svg width="95" height="66" viewBox="0 0 95 66" fill="none" xmlns="http://www.w3.org/2000/svg">
<mask id="mask0" mask-type="alpha" maskUnits="userSpaceOnUse" x="0" y="0" width="361" height="253">
<rect width="361" height="253" fill="#C4C4C4"/>
</mask>
<g mask="url(#mask0)">
<circle cx="31.5" cy="31.5" r="26.5" fill="#70AF50"/>
<path d="M43.8721 33.8354C43.3997 33.518 42.8424 33.3478 42.2706 33.3462C41.8902 33.3451 41.5127 33.4187 41.1599 33.5627C40.8071 33.7068 40.4858 33.9186 40.2145 34.1858C39.9431 34.4531 39.7271 34.7706 39.5787 35.1203C39.4303 35.4699 39.3525 35.8447 39.3497 36.2233C39.3455 36.7923 39.5108 37.3487 39.8249 37.822C40.1389 38.2954 40.5875 38.6645 41.114 38.8828C41.6406 39.1011 42.2214 39.1588 42.7831 39.0485C43.3449 38.9383 43.8623 38.6651 44.2701 38.2634C44.6779 37.8617 44.9577 37.3496 45.0742 36.7917C45.1908 36.2339 45.1388 35.6553 44.9248 35.1291C44.7109 34.6029 44.3446 34.1527 43.8721 33.8354Z" fill="#1F1F44"/>
<path d="M5.74567 4.31069L24.6859 38.6865C24.8519 39.0023 25.0915 39.2736 25.3847 39.4781C25.6779 39.6825 26.0163 39.8142 26.3719 39.8621C26.7275 39.91 27.09 39.8727 27.4295 39.7535C27.7689 39.6343 28.0755 39.4365 28.3237 39.1765C31.642 35.7993 33.955 31.575 35.0027 26.9779C35.3886 25.2943 35.6028 23.5774 35.6419 21.8534C35.6577 20.1306 35.5048 18.4116 35.1856 16.7206C35.1469 16.4182 35.0465 16.1272 34.8905 15.8656C34.7344 15.604 34.5261 15.3773 34.2782 15.1994C34.0303 15.0215 33.7482 14.8961 33.4491 14.831C33.1499 14.7658 32.8402 14.7623 32.5388 14.8207C32.2374 14.879 31.9508 14.998 31.6965 15.1702C31.4422 15.3425 31.2256 15.5644 31.06 15.8223C30.8944 16.0803 30.7834 16.3688 30.7336 16.6703C30.6839 16.9717 30.6965 17.2796 30.7707 17.5752C31.0228 18.9707 31.1367 20.3885 31.1107 21.8081C31.083 23.2289 30.9091 24.6442 30.5918 26.0317C30.1693 27.9147 29.4808 29.7304 28.5469 31.4244C28.2713 31.9287 27.9737 32.4216 27.6541 32.9032C27.053 33.857 26.7365 33.0673 26.647 32.905L9.80395 2.07715C9.66256 1.82052 9.47141 1.59458 9.2415 1.41228C9.01159 1.22998 8.74744 1.09492 8.46422 1.01486C8.181 0.934798 7.88429 0.911304 7.59113 0.94574C7.29796 0.980177 7.01412 1.07186 6.75591 1.21552C6.23513 1.51996 5.84413 2.00403 5.65773 2.57509C5.47134 3.14616 5.50265 3.76411 5.74567 4.31069Z" fill="#1F1F44"/>
<path d="M38.3293 53.5481C38.4161 53.5121 38.6057 53.6194 38.8921 53.7086L38.8904 53.6625C43.5455 55.3213 48.5945 55.5926 53.4214 54.4431C58.2483 53.2937 62.6443 50.7733 66.073 47.1895C66.4856 46.7567 66.7096 46.1797 66.6957 45.5854C66.6819 44.9912 66.4314 44.4284 65.9993 44.0209C65.5671 43.6133 64.9888 43.3944 64.3915 43.4123C63.7943 43.4302 63.227 43.6834 62.8144 44.1162C58.9616 48.1405 53.6717 50.4895 48.1066 50.6473C42.5415 50.8051 37.1563 48.7588 33.1337 44.9578C32.7884 44.6345 32.3481 44.4292 31.8763 44.3714C31.4044 44.3136 30.9253 44.4063 30.5077 44.6361C30.0901 44.8659 29.7556 45.2211 29.5522 45.6505C29.3488 46.0799 29.287 46.5615 29.3757 47.0261C29.4715 47.4285 29.6378 47.8105 29.8671 48.1546L38.2314 63.3355C38.3605 63.6132 38.5457 63.8612 38.7757 64.064C39.0056 64.2668 39.2753 64.4201 39.568 64.5144C39.8607 64.6088 40.1702 64.6421 40.4773 64.6123C40.7844 64.5826 41.0824 64.4904 41.353 64.3414C41.6236 64.1925 41.8609 63.9901 42.0502 63.7466C42.2396 63.5032 42.3769 63.224 42.4536 62.9263C42.5304 62.6286 42.5449 62.3189 42.4963 62.0162C42.4478 61.7136 42.3372 61.4246 42.1714 61.1671L38.1955 53.9509C38.0836 53.6833 38.2424 53.5842 38.3293 53.5481Z" fill="#1F1F44"/>
<path d="M55.5073 33.4114C55.0295 33.0997 54.4685 32.9368 53.8955 32.9435L53.9559 32.9455C53.5734 32.9434 53.1938 33.0165 52.8389 33.1606C52.4839 33.3048 52.1606 33.5171 51.8874 33.7854C51.6143 34.0537 51.3968 34.3726 51.2474 34.724C51.0979 35.0754 51.0195 35.4521 51.0167 35.8327C51.0149 36.403 51.1834 36.9598 51.5008 37.4324C51.8182 37.9051 52.2702 38.2723 52.7994 38.4874C53.3286 38.7026 53.9112 38.7561 54.4733 38.6411C55.0354 38.526 55.5516 38.2477 55.9565 37.8413C56.3614 37.4349 56.6367 36.9189 56.7475 36.3586C56.8583 35.7983 56.7995 35.2191 56.5787 34.6944C56.3579 34.1697 55.985 33.7231 55.5073 33.4114Z" fill="#1F1F44"/>
</g>
</svg>
