<svg id="Capa_1" data-name="Capa 1" xmlns="http://www.w3.org/2000/svg" viewBox="0 0 31.9038 23.9684"><defs><style>.cls-1{fill:#fff;}</style></defs><path class="cls-1" d="M17.1769,15.2488a.2735.2735,0,0,0-.2736.2735v.0044a.2736.2736,0,1,0,.5471,0v-.0044A.2734.2734,0,0,0,17.1769,15.2488Z"/><path class="cls-1" d="M21.4994,4.9809H12.8547a2.684,2.684,0,0,0-2.6809,2.681v8.6447a2.6839,2.6839,0,0,0,2.6809,2.6809h4.3224a.2736.2736,0,0,0,.2735-.2736v-2.12a.2736.2736,0,1,0-.5471,0V18.44H12.8547a2.1363,2.1363,0,0,1-2.1338-2.1338V7.6619a2.1362,2.1362,0,0,1,2.1338-2.1338h8.6447a2.1362,2.1362,0,0,1,2.1338,2.1338v8.6447A2.1363,2.1363,0,0,1,21.4994,18.44H19.7486V13.612h1.5861a.2737.2737,0,0,0,.2723-.2462l.1967-1.9548a.2735.2735,0,0,0-.2722-.3009H19.7486V10.0836c0-.1858.0592-.2548.2183-.2548h1.5523a.2735.2735,0,0,0,.2735-.2736V7.65a.2735.2735,0,0,0-.2735-.2735H19.4806a2.413,2.413,0,0,0-2.0781.933,2.8791,2.8791,0,0,0-.499,1.6642v1.1491H15.563a.2736.2736,0,0,0-.2736.2736v1.9425a.2735.2735,0,0,0,.2736.2735h1.3405v.78a.2736.2736,0,1,0,.5471,0V13.3384a.2736.2736,0,0,0-.2736-.2736h-1.34V11.6694h1.34a.2735.2735,0,0,0,.2736-.2735V9.9731a1.8731,1.8731,0,0,1,2.03-2.05h1.765V9.2816H19.9669a.7351.7351,0,0,0-.7654.802v1.3a.2735.2735,0,0,0,.2735.2736h1.754l-.1417,1.4076H19.475a.2735.2735,0,0,0-.2735.2736v5.3755a.2735.2735,0,0,0,.2735.2736h2.0244a2.684,2.684,0,0,0,2.681-2.6809V7.6619A2.684,2.684,0,0,0,21.4994,4.9809Z"/><path class="cls-1" d="M22.2708,3.8381H12.0829A3.1427,3.1427,0,0,0,8.9234,6.9565V17.0119A3.1427,3.1427,0,0,0,12.0829,20.13h6.448c.1781,0,0-.6364,0-.6364h-6.448a2.5013,2.5013,0,0,1-2.5147-2.482V6.9565a2.5014,2.5014,0,0,1,2.5147-2.482H22.2708a2.5014,2.5014,0,0,1,2.5147,2.482V17.0119a2.5013,2.5013,0,0,1-2.5147,2.482h-3.74s-.178.6364,0,.6364h3.74A3.1427,3.1427,0,0,0,25.43,17.0119V6.9565A3.1427,3.1427,0,0,0,22.2708,3.8381Z"/><path class="cls-1" d="M11.76,7.785a.2736.2736,0,0,0-.2735.2736v2.2842a.2736.2736,0,1,0,.5471,0V8.0586A.2736.2736,0,0,0,11.76,7.785Z"/><path class="cls-1" d="M11.76,11.2561a.2735.2735,0,0,0-.2735.2735v.0032a.2736.2736,0,1,0,.5471,0V11.53A.2735.2735,0,0,0,11.76,11.2561Z"/></svg>