<svg id="Capa_1" data-name="Capa 1" xmlns="http://www.w3.org/2000/svg" viewBox="0 0 113.68 113.79"><defs><style>.cls-1{fill:#1f1f44;}</style></defs><path class="cls-1" d="M82.48,25.21a3.59,3.59,0,0,0-.56-2,3.65,3.65,0,0,0-6.65,1.12,3.57,3.57,0,0,0,.14,2.12,3.65,3.65,0,0,0,3.3,2.36,3.71,3.71,0,0,0,3.79-3.56ZM38.53,69.1a3.65,3.65,0,0,0-.59-2,3.58,3.58,0,0,0-1.62-1.36,3.65,3.65,0,0,0-4,.73,3.74,3.74,0,0,0-1,1.86,3.68,3.68,0,0,0,1.49,3.77,3.68,3.68,0,0,0,5.74-3ZM77,70.36H65.41c-.83,3.55-1.73,7-3.69,10.16,4.56.12,12.9-5.47,15.24-10.16Zm-28.63-27A32.35,32.35,0,0,1,52.2,32.93,24.79,24.79,0,0,0,36.57,43.36Zm-5.1,39.07a8.47,8.47,0,0,0-8.71-7.26,8.31,8.31,0,0,0-7.95,7.26ZM87.19,38.51a8.44,8.44,0,0,0-8.7-7.25,8.34,8.34,0,0,0-8,7.25Zm-6,17.09a21.32,21.32,0,0,0-1.43-6.75c-.83.52-1.51,1-2.27,1.43a3,3,0,0,1-1.57.51,3.15,3.15,0,0,1-1.62-.38,3.12,3.12,0,0,1-1.6-2.76V46h-6.8c.28,3.24.54,6.41.81,9.62ZM47.79,67.8c-.27-3.24-.53-6.41-.79-9.58H32.43l.82,4.8c3.92-.35,6.25.89,7.76,4.75Zm15,2.59h-13a6.24,6.24,0,0,1,.85,4.2c-.14.86-.32,1.69-.45,2.55s-.29,2-.47,3.15c1.89.32,3.62.61,5.35.93a4.13,4.13,0,0,0,4.66-2.33A27.65,27.65,0,0,0,62.81,70.39Zm2.75-27c-1.35-3.23-1.27-6.7-2.18-10.15l-5.53-.76a3.38,3.38,0,0,0-3.38,1.6A17.06,17.06,0,0,0,52,39.27c-.41,1.33-.75,2.68-1.13,4.12Zm1.21,14.79c-.29,3.24-.56,6.39-.83,9.63H78.56a21.81,21.81,0,0,0,2.58-9.6ZM47.83,46H35.09a23.48,23.48,0,0,0-2.53,9.58H47c.28-3.23.55-6.36.83-9.58Zm15.63,0h-13a39,39,0,0,0-.75,9.56H64.28C64,52.25,63.71,49.13,63.46,46Zm.83,12.25H49.52a72.08,72.08,0,0,0,.95,9.6H63.41C63.7,64.58,64,61.46,64.29,58.2ZM23.93,84.89c-.26-5.37,2.14-9,6.57-11.33l-1.79-3.21c-.32,0-.75-.06-1.12-.06-1,0-2-.06-3,0a3.21,3.21,0,0,0-1.32.36,3.26,3.26,0,0,0-1.7,3.46q.82,5.25,1.78,10.49a3.21,3.21,0,0,0,1.08,2,3.16,3.16,0,0,0,2.11.77,22.38,22.38,0,0,0,2.59,0,3.68,3.68,0,0,1,2.4.71c1.79,1.25,3.62,2.44,5.44,3.64.34.22.69.38,1.26.7.75-1.68.06-3.4.53-5h4.42a3.24,3.24,0,0,0,3.38-2.87c.18-.89.32-1.8.48-2.7.43-2.5.86-5,1.27-7.5a3.09,3.09,0,0,0,0-1.32,3.25,3.25,0,0,0-.51-1.23,3.21,3.21,0,0,0-2.2-1.38,39.39,39.39,0,0,0-4.48,0l-1.83,3.23c5,3.08,7.25,7,6.39,11.32Zm51.8-36.41c1.51-1,3-1.83,4.27-2.86,2.07-1.65,4.28-2.65,7-2.2a1.77,1.77,0,0,0,.46,0,3.21,3.21,0,0,0,3-2.62c.64-3.54,1.26-7.08,1.81-10.64a3.3,3.3,0,0,0-.62-2.53,3.2,3.2,0,0,0-1-.86,3.23,3.23,0,0,0-1.28-.39c-1.45-.11-2.92,0-4.27,0l-1.79,3.25c4.92,2.92,7.39,7.31,6.35,11.33-4.35.3-20.53.16-21.75-.19C67.66,35.61,70,32,74.47,29.65l-1.86-3.27H68.73a3.23,3.23,0,0,0-2.55,1.16,3.28,3.28,0,0,0-.67,1.28,3.33,3.33,0,0,0,0,1.44c.55,3.46,1.14,6.9,1.76,10.35a3.21,3.21,0,0,0,3.25,2.83H75C75.5,45.18,74.67,46.85,75.73,48.48Zm-47,19.36c.37-.75.62-1.4,1-2A17.93,17.93,0,0,1,31,64.22c-2.42-9.69-.52-18.48,6.41-25.79S53,28.75,63,30.62v-1.3a5.74,5.74,0,0,1,5.56-5.41h4.21c1.09-3.17,3.17-5.05,6.66-4.87,2.47.14,4.33,1.78,5.51,4.87a34.44,34.44,0,0,0,3.52,0,5.9,5.9,0,0,1,2.72.45,5.87,5.87,0,0,1,3.43,4.11,5.94,5.94,0,0,1,0,2.75c-.7,3.22-1.1,6.5-1.67,9.75a5.66,5.66,0,0,1-5.83,4.92,4.92,4.92,0,0,1-.94,0A4.66,4.66,0,0,0,82,47.4c3.39,10.2,1.88,19.68-5.52,27.68S59.89,85.33,49.32,82.74c-.42,2.15-.6,4.26-2.34,5.74s-3.78,1.46-6,1.35v1.51a3.19,3.19,0,0,1-.37,1.77,3.14,3.14,0,0,1-4.71,1C34.17,93,32.45,91.87,30.8,90.7a3.79,3.79,0,0,0-2.68-.83,14,14,0,0,1-1.83,0,5.62,5.62,0,0,1-3.52-1.28,5.55,5.55,0,0,1-1.92-3.2c-.69-3.64-1.33-7.29-1.84-11A5.65,5.65,0,0,1,19.19,72a5.55,5.55,0,0,1,1.19-2.15,5.67,5.67,0,0,1,4.41-1.92C26.17,67.8,27.48,67.84,28.75,67.84Z"/><path class="cls-1" d="M85.2,75.79l-1.9-1.31a32.17,32.17,0,0,0,4.26-25.8L89.64,48C92.34,54.61,91.4,67.47,85.2,75.79Z"/><path class="cls-1" d="M26.14,64.91a3.08,3.08,0,0,1-.48.32c-.52.16-1.06.29-1.59.44-2.71-6.8-1.64-19.64,4.47-27.74l1.9,1.29A32.09,32.09,0,0,0,26.14,64.91Z"/><path class="cls-1" d="M74.49,83.29l1.38,2a34.28,34.28,0,0,1-25.25,5.16c.07-.52.1-.92.18-1.3s.17-.67.29-1.11A32.07,32.07,0,0,0,74.49,83.29Z"/><path class="cls-1" d="M61.87,23.15c-.08.76-.16,1.46-.25,2.27a32.26,32.26,0,0,0-22.38,5L38,28.52C43.59,24.15,54,21.52,61.87,23.15Z"/><path class="cls-1" d="M33.64,37.33a3.67,3.67,0,0,1-3.55-4.42,3.62,3.62,0,0,1,1-1.86,3.62,3.62,0,0,1,4-.75,3.62,3.62,0,0,1,1.63,1.37,3.68,3.68,0,0,1,.59,2,3.69,3.69,0,0,1-3.7,3.62Z"/><path class="cls-1" d="M83.72,80a3.65,3.65,0,0,1-4.37,3.6,3.71,3.71,0,0,1-1.88-1,3.68,3.68,0,0,1-.8-4A3.75,3.75,0,0,1,78,77a3.66,3.66,0,0,1,5.7,3Z"/></svg>