<svg id="Capa_1" data-name="Capa 1" xmlns="http://www.w3.org/2000/svg" viewBox="0 0 113.68 113.79"><defs><style>.cls-1{fill:#fbde48;}.cls-2{fill:#1f1f44;}</style></defs><path class="cls-1" d="M73.64,27.84l-9.52,9.52,0,0a20.89,20.89,0,0,1,12.2,12.2v0l9.53-9.53Z"/><path class="cls-1" d="M38.45,87.54l10-10-.07-.13-5.54-6.85a25.1,25.1,0,0,1-5.31-6.58v0L26.2,75.28Z"/><path class="cls-1" d="M92.32,76.51h2.52V69.15H92.32a2.38,2.38,0,0,1-2.19-1.49,2.35,2.35,0,0,1,.51-2.58l1.78-1.79-5.2-5.2-1.79,1.79a2.33,2.33,0,0,1-2.5.53l-.12,0a2.35,2.35,0,0,1-1.45-2.17V55.67H77.62c0,.41.06.81.06,1.23a15,15,0,0,1-2.94,9.26l.1-.11a7.36,7.36,0,1,1-4.51,6.78,7.21,7.21,0,0,1,.33-2.19c-2.54,2.48-5.07,5-6.25,8.79l0,0a2.44,2.44,0,0,1-.23,4.16l4,4,1.79-1.78a2.31,2.31,0,0,1,2.5-.54l.12,0A2.35,2.35,0,0,1,74,87.47V90h7.36V87.47a2.37,2.37,0,0,1,1.5-2.19,2.33,2.33,0,0,1,2.57.51l1.79,1.78,5.2-5.2-1.78-1.79a2.39,2.39,0,0,1,1.68-4.07Z"/><path class="cls-1" d="M64.36,79.4a2.71,2.71,0,0,0-.73-.34Z"/><path class="cls-2" d="M77.68,71.61a1.23,1.23,0,1,1,0,2.45,1.23,1.23,0,1,1,0-2.45Zm0,4.9A3.68,3.68,0,1,0,74,72.83,3.68,3.68,0,0,0,77.68,76.51Z"/><path class="cls-2" d="M88.71,35.55,78.19,25l1.5-1.5A7.36,7.36,0,0,1,85,21.35a7.45,7.45,0,0,1,7.44,7.44,7.36,7.36,0,0,1-2.18,5.26ZM73.24,42.23l7.4-7.4L78.91,33.1l-7.4,7.4A22.26,22.26,0,0,0,66.24,37L76.45,26.76,87,37.28,76.76,47.51A22.42,22.42,0,0,0,73.24,42.23ZM77.68,66.7a6.13,6.13,0,1,1-6.13,6.13,5.88,5.88,0,0,1,.22-1.56,38.22,38.22,0,0,0,3.83-4.18A6.14,6.14,0,0,1,77.68,66.7Zm-14,11.11a3.55,3.55,0,0,0-.73-.08h-4.9V71.61a3.68,3.68,0,0,0-3.68-3.68H51.94a1.23,1.23,0,1,1,0-2.45H64.2a3.68,3.68,0,0,0,0-7.36H54.39a1.23,1.23,0,0,1-1.23-1.22V53.22h6.13a6.13,6.13,0,0,0,0-12.26h-.1a8.52,8.52,0,0,0,.1-1.24A9.39,9.39,0,0,0,59,37.41,19.72,19.72,0,0,1,76.45,56.9c0,6.37-3.21,9.51-6.61,12.82C67.5,72,65.1,74.37,63.7,77.81ZM63,87.54H50.71a1.23,1.23,0,0,1,0-2.45H63a1.23,1.23,0,1,1,0,2.45Zm-6.13,4.9A5,5,0,0,1,52.52,90h8.64A5,5,0,0,1,56.84,92.44Zm-19.07-6L28.13,90.2l-4.59-4.6L27.25,76l10-10a27.4,27.4,0,0,0,4,4.76l-9.86,9.86,1.73,1.73,9.88-9.88A22.28,22.28,0,0,1,47,77.25Zm-15.33,5.9a.87.87,0,0,1-1.15-.79.8.8,0,0,1,.06-.3l1.23-3.19,3.05,3Zm41.76-11A1.23,1.23,0,0,1,63,82.64H50.71a1.23,1.23,0,0,1,0-2.45H63A1.23,1.23,0,0,1,64.2,81.41ZM50.71,53.22V56.9a3.68,3.68,0,0,0,3.68,3.67H64.2a1.23,1.23,0,0,1,0,2.46H51.94a3.68,3.68,0,1,0,0,7.35h2.45a1.23,1.23,0,0,1,1.23,1.23v6.12H50.71a3.38,3.38,0,0,0-.72.08c-1.4-3.44-3.81-5.8-6.15-8.09-3.4-3.31-6.61-6.45-6.61-12.82a19.72,19.72,0,0,1,.38-3.68ZM21.29,45.86a4.91,4.91,0,0,1,9.81,0h2.45a7.36,7.36,0,0,0-7-7.34,9.64,9.64,0,0,1-.31-2.46,9.79,9.79,0,0,1,18.35-4.78,9.81,9.81,0,0,0-4.81,7.38A4.91,4.91,0,0,0,36,43.41h2.46a2.45,2.45,0,0,1,4.9,0h2.45a4.88,4.88,0,0,0-3.6-4.7,7.35,7.35,0,0,1,14.63,1,7.15,7.15,0,0,1-.27,1.9,6.1,6.1,0,0,0-3.41,5.46h2.46a3.68,3.68,0,1,1,3.67,3.68H26.2A4.91,4.91,0,0,1,21.29,45.86ZM94.84,28.79a9.9,9.9,0,0,0-16.89-7L63.78,36A21.28,21.28,0,0,0,58,34.89a9.77,9.77,0,0,0-11.2-4.58,12.24,12.24,0,0,0-22.73,8.52A7.35,7.35,0,0,0,26.2,53.22h8.89a22.56,22.56,0,0,0-.31,3.68,16.89,16.89,0,0,0,1.3,6.76L25.15,74.6,19.06,90.42a3.43,3.43,0,0,0-.22,1.18,3.3,3.3,0,0,0,3.3,3.3,3.43,3.43,0,0,0,1.18-.22l15.82-6.09,8-8a3.75,3.75,0,0,0-.09.82,3.62,3.62,0,0,0,1,2.45,3.66,3.66,0,0,0,1.79,6,7.46,7.46,0,0,0,14.12,0,3.65,3.65,0,0,0,1.79-6,3.59,3.59,0,0,0,.13-4.74,15.91,15.91,0,0,1,3.35-5.22,8.58,8.58,0,1,0,8.51-9.65l-.35,0a16.68,16.68,0,0,0,1.58-7.37A21.85,21.85,0,0,0,77.76,50L91.94,35.79A9.84,9.84,0,0,0,94.84,28.79Z"/></svg>