<svg id="Capa_1" data-name="Capa 1" xmlns="http://www.w3.org/2000/svg" viewBox="0 0 113.68 113.79"><defs><style>.cls-1{fill:#1f1f44;}</style></defs><path class="cls-1" d="M92.3,45.89l-3.74-.53a3.88,3.88,0,0,0-3.66,6.16l2.28,3L83,57.66l-2.27-3a3.88,3.88,0,0,0-7,1.78l-.52,3.75-5.12-.73.54-3.75A3.88,3.88,0,0,0,62.55,52l-3,2.27-3.1-4.14,3-2.27a3.88,3.88,0,0,0,.77-5.43A3.84,3.84,0,0,0,57.67,41l-3.75-.54.73-5.12,3.75.54a3.88,3.88,0,0,0,3.65-6.17l-2.28-3,4.14-3.1,2.27,3a3.89,3.89,0,0,0,6.95-1.78L73.66,21l5.12.73-.54,3.75a3.88,3.88,0,0,0,6.17,3.65l3-2.27L90.54,31l-3,2.27a3.88,3.88,0,0,0,1.78,6.94l3.75.54ZM39.54,65.26a5.16,5.16,0,1,1-4.85-6.91h.05A24.49,24.49,0,0,0,39.54,65.26Zm2,1.82a21.89,21.89,0,0,0,2.21,1.61A6.28,6.28,0,0,1,46.36,72l-2.77,2.77L40.9,72.92a2.58,2.58,0,0,0-3.59.66,2.48,2.48,0,0,0-.4.93l-.68,3.23H33.16l-.68-3.22a2.59,2.59,0,0,0-3.06-2,2.62,2.62,0,0,0-.94.4L25.8,74.77l-2.36-2.35,1.85-2.69a2.58,2.58,0,0,0-.66-3.59,2.46,2.46,0,0,0-.94-.4l-3.22-.68V62l3.22-.68a2.6,2.6,0,0,0,2-3.07,2.53,2.53,0,0,0-.4-.92l-1.85-2.7,2.36-2.35,2.68,1.85a2.59,2.59,0,0,0,3.6-.66,2.65,2.65,0,0,0,.4-.93l.23-1.08a24.53,24.53,0,0,0,1,4.39,7.75,7.75,0,1,0,7.82,11.24Zm10.29,22.3H62.18v1.29a2.59,2.59,0,0,1-2.58,2.59H54.43a2.59,2.59,0,0,1-2.59-2.59Zm0-5.17H62.18v2.58H51.84ZM94.69,38.4h0l-5-.72a1.29,1.29,0,0,1-.6-2.31l4.07-3a1.29,1.29,0,0,0,.26-1.81L88.73,24.3A1.29,1.29,0,0,0,86.92,24l-4.06,3.05a1.29,1.29,0,0,1-2.06-1.22l.72-5a1.3,1.3,0,0,0-1.1-1.47h0l-7.67-1.09a1.28,1.28,0,0,0-1.47,1.09h0l-.72,5a1.29,1.29,0,0,1-2.31.59l-3-4.06a1.29,1.29,0,0,0-1.81-.26L59.51,23.6a24.41,24.41,0,0,0-26.95,22c0,.37-.05.73-.06,1.09h-.39a1.31,1.31,0,0,0-1.27,1L30,52l-3.58-2.47a1.29,1.29,0,0,0-1.65.15l-3.87,3.88a1.26,1.26,0,0,0-.15,1.64l2.45,3.58-4.25.89a1.29,1.29,0,0,0-1,1.27v5.17a1.28,1.28,0,0,0,1,1.26l4.25.9-2.45,3.57a1.26,1.26,0,0,0,.15,1.64l3.87,3.88a1.29,1.29,0,0,0,1.65.15L30,75.05l.9,4.25a1.28,1.28,0,0,0,1.26,1h5.17a1.3,1.3,0,0,0,1.27-1l.89-4.25L43,77.51a1.29,1.29,0,0,0,1.65-.15l2-2V79a5.16,5.16,0,0,0,2.58,4.46v7.18a5.17,5.17,0,0,0,5.18,5.17H59.6a5.17,5.17,0,0,0,5.17-5.17V83.49A5.16,5.16,0,0,0,67.35,79V73.92a6.37,6.37,0,0,1,3-5.28,24.59,24.59,0,0,0,3-2.33l-1.73-1.92a22,22,0,0,1-2.72,2.08,8.9,8.9,0,0,0-4.17,7.45V79a2.59,2.59,0,0,1-2.59,2.59H51.84A2.59,2.59,0,0,1,49.25,79V73.81a8.71,8.71,0,0,0-4.1-7.3A21.91,21.91,0,0,1,56.73,26.05l0,.14a1.28,1.28,0,0,0,.25,1l3,4.06a1.27,1.27,0,0,1,.07,1.44,1.28,1.28,0,0,1-1.29.62l-5-.72a1.29,1.29,0,0,0-1.46,1.1h0l-1.1,7.67a1.3,1.3,0,0,0,1.1,1.47h0l5,.72A1.29,1.29,0,0,1,58.4,45a1.27,1.27,0,0,1-.51.85l-4.06,3a1.29,1.29,0,0,0-.26,1.81l4.65,6.2a1.28,1.28,0,0,0,1.81.26l4.07-3a1.29,1.29,0,0,1,2.05,1.21l-.71,5a1.27,1.27,0,0,0,1.09,1.46h0l7.68,1.1h.18a1.28,1.28,0,0,0,1.28-1.11l.72-5a1.29,1.29,0,0,1,1.46-1.1,1.34,1.34,0,0,1,.86.5l3,4.07a1.29,1.29,0,0,0,1.81.25l6.21-4.65A1.29,1.29,0,0,0,90,54L87,50a1.28,1.28,0,0,1-.08-1.44,1.27,1.27,0,0,1,1.3-.62l5,.72a1.29,1.29,0,0,0,1.46-1.1h0l1.1-7.68A1.29,1.29,0,0,0,94.69,38.4Z"/><path class="cls-1" d="M73.48,48.35a7.76,7.76,0,1,1,7.75-7.76A7.75,7.75,0,0,1,73.48,48.35Zm0-18.1A10.34,10.34,0,1,0,83.82,40.59,10.34,10.34,0,0,0,73.48,30.25Z"/><rect class="cls-1" x="55.72" y="75.16" width="2.59" height="3.88"/><path class="cls-1" d="M51.36,62.46a15.51,15.51,0,0,1-2.62-27.58l-1.38-2.19a18.11,18.11,0,0,0,3.06,32.18,8.24,8.24,0,0,1,5.3,7.7H58.3A10.81,10.81,0,0,0,51.36,62.46Z"/><rect class="cls-1" x="81.57" y="66.11" width="9.05" height="2.59"/><rect class="cls-1" x="82.87" y="72.05" width="2.59" height="10.1" transform="translate(-28.94 92.41) rotate(-50.2)"/><rect class="cls-1" x="73.82" y="76.45" width="2.59" height="9.05"/><rect class="cls-1" x="19.36" y="38.96" width="10.66" height="2.58" transform="translate(-9.02 7.19) rotate(-14.03)"/><rect class="cls-1" x="25.34" y="23.7" width="2.58" height="11.12" transform="translate(-12.66 33.92) rotate(-54.46)"/><rect class="cls-1" x="33.71" y="18.1" width="2.59" height="10.67" transform="translate(-4.72 9.4) rotate(-14.34)"/></svg>