<svg id="Capa_1" data-name="Capa 1" xmlns="http://www.w3.org/2000/svg" viewBox="0 0 31.9038 23.9684"><defs><style>.cls-1{fill:#fff;}</style></defs><path class="cls-1" d="M23.56,15.4015a4.1958,4.1958,0,0,1-4.1911,4.1911H12.5346a4.1958,4.1958,0,0,1-4.1911-4.1911V8.5669a4.1958,4.1958,0,0,1,4.1911-4.1911h6.8346A4.1958,4.1958,0,0,1,23.56,8.5669ZM19.3692,3.731H12.5346A4.8414,4.8414,0,0,0,7.6987,8.5669v6.8346a4.8414,4.8414,0,0,0,4.8359,4.8359h6.8346a4.8414,4.8414,0,0,0,4.8359-4.8359V8.5669A4.8414,4.8414,0,0,0,19.3692,3.731Z"/><path class="cls-1" d="M19.3693,5.15H12.5346A3.4211,3.4211,0,0,0,9.1173,8.5669v6.8346a3.4211,3.4211,0,0,0,3.4173,3.4174h1.9666a.3224.3224,0,1,0,0-.6448H12.5346A2.7758,2.7758,0,0,1,9.762,15.4015V8.5669a2.7758,2.7758,0,0,1,2.7726-2.7726h6.8347a2.7757,2.7757,0,0,1,2.7725,2.7726v6.8346a2.7757,2.7757,0,0,1-2.7725,2.7726H17.4242a.3224.3224,0,0,0,0,.6448h1.9451a3.4212,3.4212,0,0,0,3.4173-3.4174V8.5669A3.4212,3.4212,0,0,0,19.3693,5.15Z"/><path class="cls-1" d="M16.18,18.2686a.3223.3223,0,1,0,.0944.2279A.3249.3249,0,0,0,16.18,18.2686Z"/><path class="cls-1" d="M13.3679,8.751a.3224.3224,0,0,0-.4557-.0149l-.0143.0135a.3224.3224,0,0,0,.4426.4689l.0126-.0118A.3224.3224,0,0,0,13.3679,8.751Z"/><path class="cls-1" d="M15.9523,7.5352a4.4624,4.4624,0,0,0-2.0381.4933.3224.3224,0,0,0,.2958.573A3.7616,3.7616,0,0,1,15.9523,8.18a3.8023,3.8023,0,1,1-3.31,1.9286.3224.3224,0,0,0-.5607-.3184,4.45,4.45,0,1,0,3.8712-2.255Z"/><path class="cls-1" d="M15.9519,14.2409a2.2567,2.2567,0,1,1,2.2568-2.2567A2.2593,2.2593,0,0,1,15.9519,14.2409Zm0-5.1582a2.9015,2.9015,0,1,0,2.9015,2.9015A2.9048,2.9048,0,0,0,15.9519,9.0827Z"/><path class="cls-1" d="M20.183,8.3332a.58.58,0,1,1,.58-.58A.581.581,0,0,1,20.183,8.3332Zm0-1.8054a1.2251,1.2251,0,1,0,1.2251,1.2251A1.2264,1.2264,0,0,0,20.183,6.5278Z"/></svg>