<svg id="Capa_1" data-name="Capa 1" xmlns="http://www.w3.org/2000/svg" viewBox="0 0 113.68 113.79"><defs><style>.cls-1{fill:#70af50;}.cls-2{fill:#1f1f44;}</style></defs><path class="cls-1" d="M73.48,49.64A9,9,0,1,1,79.88,47,9,9,0,0,1,73.48,49.64ZM88.29,34.33l4.06-3-4.65-6.2-4.07,3a2.59,2.59,0,0,1-1.41.52,2.63,2.63,0,0,1-1.45-.36,2.59,2.59,0,0,1-1.25-2.59l.72-5-7.68-1.09-.72,5a2.59,2.59,0,0,1-3.41,2.08,2.52,2.52,0,0,1-1.21-.89l-3-4.06L58,26.37l3,4.06a2.5,2.5,0,0,1,.51,1.41,2.57,2.57,0,0,1-.35,1.46,2.67,2.67,0,0,1-1.11,1,2.52,2.52,0,0,1-1.48.22l-5-.71-1.1,7.68,5,.71a2.61,2.61,0,0,1,2.14,1.92,2.56,2.56,0,0,1-.07,1.5,2.59,2.59,0,0,1-.88,1.21l-4.07,3,4.66,6.21,4.06-3a2.59,2.59,0,0,1,1.41-.52,2.67,2.67,0,0,1,1.46.36,2.58,2.58,0,0,1,1,1.11,2.61,2.61,0,0,1,.23,1.48l-.72,5,7.68,1.1.72-5a2.56,2.56,0,0,1,.63-1.36A2.65,2.65,0,0,1,77,54.45a2.56,2.56,0,0,1,1.5.06,2.61,2.61,0,0,1,1.21.89l3.05,4.07L89,54.81l-3-4.06a2.66,2.66,0,0,1-.51-1.41,2.58,2.58,0,0,1,.36-1.46,2.64,2.64,0,0,1,1.1-1,2.54,2.54,0,0,1,1.49-.22l5,.72,1.1-7.68-5-.72a2.64,2.64,0,0,1-1.36-.64A2.49,2.49,0,0,1,87.34,37a2.56,2.56,0,0,1,.06-1.5A2.61,2.61,0,0,1,88.29,34.33Z"/><path class="cls-1" d="M44.46,67.6a23.15,23.15,0,0,1-3.19-2.46,6.46,6.46,0,0,1-8.49,4.42,6.49,6.49,0,0,1-4.18-5.41,6.43,6.43,0,0,1,3-6.12,6.34,6.34,0,0,1,3.41-1c.2,0,.39,0,.58,0A23.15,23.15,0,0,1,33.75,48H32.11l-.9,4.25a1.22,1.22,0,0,1-.27.56,1.24,1.24,0,0,1-.51.37,1.27,1.27,0,0,1-1.21-.13l-3.58-2.47-3.87,3.88L24.22,58a1.29,1.29,0,0,1,.22.59,1.24,1.24,0,0,1-.08.63,1.42,1.42,0,0,1-.37.51,1.31,1.31,0,0,1-.57.27l-4.24.9v5.17l4.25.89a1.27,1.27,0,0,1,.56.27,1.31,1.31,0,0,1,.37.51,1.36,1.36,0,0,1,.09.63,1.41,1.41,0,0,1-.22.59l-2.46,3.57,3.87,3.88L29.22,74a1.27,1.27,0,0,1,1.21-.13,1.22,1.22,0,0,1,.51.36,1.38,1.38,0,0,1,.28.57L32.11,79h5.17l.89-4.25a1.24,1.24,0,0,1,.28-.56,1.27,1.27,0,0,1,.51-.37,1.3,1.3,0,0,1,.62-.09,1.26,1.26,0,0,1,.59.23l3.57,2.46,4.06-4.06a7.41,7.41,0,0,0-1.19-2.73A7.67,7.67,0,0,0,44.46,67.6Z"/><path class="cls-2" d="M92.3,45.89l-3.74-.53a3.88,3.88,0,0,0-4.43,4,3.93,3.93,0,0,0,.77,2.11l2.28,3L83,57.66l-2.27-3a3.89,3.89,0,0,0-6-.27,3.9,3.9,0,0,0-1,2l-.52,3.76-5.12-.73.54-3.75a3.89,3.89,0,0,0-.34-2.23,4,4,0,0,0-1.53-1.66,3.8,3.8,0,0,0-2.18-.53,3.86,3.86,0,0,0-2.12.77l-3,2.27-3.1-4.14,3-2.27a3.87,3.87,0,0,0,.26-6,3.82,3.82,0,0,0-2-.95l-3.75-.54.73-5.12,3.75.54a3.89,3.89,0,0,0,2.23-.34A4,4,0,0,0,62.29,34a3.8,3.8,0,0,0,.53-2.18,3.86,3.86,0,0,0-.77-2.12l-2.28-3,4.14-3.1,2.27,3A4,4,0,0,0,68,27.89a3.92,3.92,0,0,0,2.25.1,3.88,3.88,0,0,0,1.92-1.17,3.83,3.83,0,0,0,1-2L73.66,21l5.12.73-.54,3.75a4,4,0,0,0,.35,2.22,3.81,3.81,0,0,0,1.52,1.66,3.9,3.9,0,0,0,2.19.54,3.85,3.85,0,0,0,2.11-.77l3-2.27L90.54,31l-3,2.28a3.87,3.87,0,0,0-1.43,4.06,3.88,3.88,0,0,0,3.21,2.88l3.75.53ZM46.36,72l-2.77,2.77L40.9,72.92a2.4,2.4,0,0,0-1.17-.44,2.64,2.64,0,0,0-1.25.16,2.61,2.61,0,0,0-1,.74,2.49,2.49,0,0,0-.55,1.13l-.68,3.23H33.16l-.68-3.22a2.6,2.6,0,0,0-.55-1.13,2.66,2.66,0,0,0-1-.74,2.56,2.56,0,0,0-1.25-.17,2.65,2.65,0,0,0-1.18.44L25.8,74.77l-2.36-2.35,1.85-2.69a2.61,2.61,0,0,0,.44-1.18,2.57,2.57,0,0,0-2-2.81l-3.22-.68V62l3.22-.67a2.51,2.51,0,0,0,1.13-.56,2.55,2.55,0,0,0,.74-1,2.68,2.68,0,0,0,.17-1.25,2.61,2.61,0,0,0-.44-1.17l-1.85-2.7,2.36-2.35,2.68,1.85a2.43,2.43,0,0,0,1.18.44,2.66,2.66,0,0,0,1.25-.16,2.76,2.76,0,0,0,1-.74,2.71,2.71,0,0,0,.55-1.13l.23-1.08a24.23,24.23,0,0,0,1,4.38A7.76,7.76,0,1,0,38.91,70a7.78,7.78,0,0,0,2.64-2.94,21.89,21.89,0,0,0,2.21,1.61A6.28,6.28,0,0,1,46.36,72ZM62.18,84.21v2.58H51.84V84.21Zm-2.58,9H54.43a2.58,2.58,0,0,1-2.59-2.58V89.38H62.18v1.29a2.56,2.56,0,0,1-2.58,2.58ZM34.74,58.35a24.49,24.49,0,0,0,4.8,6.91,5.18,5.18,0,0,1-1.61,2.27,5.29,5.29,0,0,1-2.56,1.1,5.13,5.13,0,0,1-2.76-.39,5.16,5.16,0,0,1,2.08-9.89Zm60-20-5-.72a1.3,1.3,0,0,1-.68-.32,1.26,1.26,0,0,1-.39-.64,1.28,1.28,0,0,1,0-.75,1.34,1.34,0,0,1,.44-.61l4.07-3a1.34,1.34,0,0,0,.5-.86,1.29,1.29,0,0,0-.24-.95L88.73,24.3a1.29,1.29,0,0,0-.85-.5,1.32,1.32,0,0,0-1,.24l-4.06,3.05a1.21,1.21,0,0,1-.71.26,1.26,1.26,0,0,1-.73-.18,1.27,1.27,0,0,1-.62-1.3l.72-5a1.46,1.46,0,0,0,0-.51,1.26,1.26,0,0,0-.22-.45,1.33,1.33,0,0,0-.37-.34,1.38,1.38,0,0,0-.48-.17l-7.67-1.09a1.23,1.23,0,0,0-1,.24,1.24,1.24,0,0,0-.34.38,1.26,1.26,0,0,0-.17.47l-.72,5a1.25,1.25,0,0,1-.31.68,1.3,1.3,0,0,1-.64.39,1.36,1.36,0,0,1-.75,0,1.26,1.26,0,0,1-.61-.45l-3-4.06a1.25,1.25,0,0,0-.85-.5,1.32,1.32,0,0,0-1,.24L59.51,23.6a24.52,24.52,0,0,0-26.95,22c0,.37-.05.73-.06,1.09h-.39a1.29,1.29,0,0,0-.82.3,1.27,1.27,0,0,0-.45.74L30,52l-3.58-2.47a1.29,1.29,0,0,0-.85-.22,1.24,1.24,0,0,0-.8.37l-3.87,3.88a1.26,1.26,0,0,0-.38.79,1.28,1.28,0,0,0,.23.85l2.45,3.58-4.25.89a1.28,1.28,0,0,0-.73.45,1.33,1.33,0,0,0-.28.81v5.18a1.33,1.33,0,0,0,.28.81,1.3,1.3,0,0,0,.74.45l4.25.9-2.45,3.57a1.29,1.29,0,0,0-.23.85,1.26,1.26,0,0,0,.38.79l3.87,3.88a1.31,1.31,0,0,0,.8.38,1.35,1.35,0,0,0,.85-.23L30,75.05l.9,4.25a1.3,1.3,0,0,0,.45.74,1.26,1.26,0,0,0,.81.29h5.17A1.28,1.28,0,0,0,38.1,80a1.25,1.25,0,0,0,.45-.73l.89-4.25L43,77.51a1.29,1.29,0,0,0,.85.23,1.26,1.26,0,0,0,.8-.38l2-2V79a5.18,5.18,0,0,0,2.58,4.46v7.18a5.17,5.17,0,0,0,5.18,5.17H59.6a5.17,5.17,0,0,0,5.17-5.17V83.49A5.12,5.12,0,0,0,67.35,79V73.92a6.39,6.39,0,0,1,3-5.28,24.59,24.59,0,0,0,3-2.33l-1.73-1.92a22,22,0,0,1-2.72,2.08,8.94,8.94,0,0,0-3,3.19,8.83,8.83,0,0,0-1.13,4.26V79a2.59,2.59,0,0,1-2.59,2.59H51.84A2.59,2.59,0,0,1,49.25,79V73.81a8.58,8.58,0,0,0-1.11-4.17,8.71,8.71,0,0,0-3-3.13A21.91,21.91,0,0,1,56.73,26.05s0,.09,0,.14a1.32,1.32,0,0,0,.25,1l3,4.06a1.27,1.27,0,0,1,.07,1.44,1.21,1.21,0,0,1-.55.5,1.35,1.35,0,0,1-.74.12l-5-.72a1.05,1.05,0,0,0-.5,0,1.28,1.28,0,0,0-.46.21,1.33,1.33,0,0,0-.33.38,1.2,1.2,0,0,0-.17.48l-1.1,7.67a1.46,1.46,0,0,0,0,.51,1.26,1.26,0,0,0,.22.45,1.33,1.33,0,0,0,.37.34,1.38,1.38,0,0,0,.48.17l5,.72a1.25,1.25,0,0,1,.68.31,1.36,1.36,0,0,1,.39.65,1.37,1.37,0,0,1,0,.75,1.28,1.28,0,0,1-.45.6l-4.06,3a1.33,1.33,0,0,0-.34.37,1.62,1.62,0,0,0-.17.48,1.39,1.39,0,0,0,0,.5,1.3,1.3,0,0,0,.22.46l4.65,6.2a1.31,1.31,0,0,0,.86.51,1.26,1.26,0,0,0,1-.25l4.07-3a1.27,1.27,0,0,1,.7-.25,1.32,1.32,0,0,1,.73.18,1.29,1.29,0,0,1,.51.55,1.26,1.26,0,0,1,.11.74l-.71,5a1.2,1.2,0,0,0,0,.5,1.3,1.3,0,0,0,.22.46,1.38,1.38,0,0,0,.38.34,1.25,1.25,0,0,0,.47.16l7.68,1.1h.18a1.31,1.31,0,0,0,.85-.31,1.27,1.27,0,0,0,.43-.8l.72-5a1.34,1.34,0,0,1,.32-.68,1.33,1.33,0,0,1,.64-.39,1.28,1.28,0,0,1,.75,0,1.34,1.34,0,0,1,.61.44l3,4.06a1.31,1.31,0,0,0,.86.51,1.25,1.25,0,0,0,1-.25l6.21-4.65a1.28,1.28,0,0,0,.5-.85A1.31,1.31,0,0,0,90,54L87,50a1.24,1.24,0,0,1-.26-.71,1.32,1.32,0,0,1,.18-.73,1.27,1.27,0,0,1,1.3-.62l5,.72a1.42,1.42,0,0,0,.5,0,1.26,1.26,0,0,0,.45-.22,1.33,1.33,0,0,0,.34-.37,1.38,1.38,0,0,0,.17-.48l1.1-7.68a1.39,1.39,0,0,0,0-.5,1.3,1.3,0,0,0-.22-.46,1.21,1.21,0,0,0-.38-.33,1.11,1.11,0,0,0-.47-.17Z"/><path class="cls-2" d="M73.48,48.35A7.77,7.77,0,1,1,79,46.07,7.75,7.75,0,0,1,73.48,48.35Zm0-18.1a10.35,10.35,0,1,0,7.31,3A10.39,10.39,0,0,0,73.48,30.25Z"/><rect class="cls-2" x="55.72" y="75.16" width="2.59" height="3.88"/><path class="cls-2" d="M51.36,62.46a15.51,15.51,0,0,1-2.62-27.58l-1.38-2.19a18.11,18.11,0,0,0,3.06,32.18,8.22,8.22,0,0,1,5.3,7.7H58.3a10.8,10.8,0,0,0-6.94-10.11Z"/><rect class="cls-2" x="81.57" y="66.11" width="9.05" height="2.59"/><rect class="cls-2" x="82.87" y="72.05" width="2.59" height="10.1" transform="translate(-28.94 92.4) rotate(-50.2)"/><rect class="cls-2" x="73.82" y="76.45" width="2.59" height="9.05"/><rect class="cls-2" x="19.36" y="38.96" width="10.66" height="2.58" transform="translate(-9.02 7.19) rotate(-14.04)"/><rect class="cls-2" x="25.34" y="23.7" width="2.58" height="11.12" transform="translate(-12.66 33.92) rotate(-54.46)"/><rect class="cls-2" x="33.71" y="18.11" width="2.59" height="10.67" transform="translate(-4.72 9.4) rotate(-14.34)"/></svg>