<svg id="Capa_1" data-name="Capa 1" xmlns="http://www.w3.org/2000/svg" viewBox="0 0 113.68 113.79"><defs><style>.cls-1{fill:#70af50;}</style></defs><path class="cls-1" d="M79.9,45.68c-1.27,1-2.7,1.81-4.19,2.8-1.07-1.63-.23-3.3-.7-5H70.46a3.2,3.2,0,0,1-2.17-.79,3.23,3.23,0,0,1-1.08-2c-.46-2.55-.9-5.09-1.32-7.64A25.53,25.53,0,0,0,33.08,65.91a3.54,3.54,0,0,1,1.79-.49,3.63,3.63,0,0,1,2.25.75,3.57,3.57,0,0,1,1.3,2,3.63,3.63,0,0,1-1.82,4.1A25.83,25.83,0,0,0,45,79.43a14.27,14.27,0,0,0-5.74-5.89l1.79-3.21a41.85,41.85,0,0,1,4.48,0,3.27,3.27,0,0,1,2.2,1.39A3.37,3.37,0,0,1,48.26,73a3.31,3.31,0,0,1,0,1.33q-.49,3.08-1,6.15A25.53,25.53,0,0,0,79.9,45.7Z"/><path d="M82.47,25.21a3.64,3.64,0,0,0-.56-2,3.65,3.65,0,0,0-5.59-.71,3.64,3.64,0,0,0-1,1.83,3.7,3.7,0,0,0,.14,2.11,3.65,3.65,0,0,0,3.29,2.36,3.71,3.71,0,0,0,3.77-3.56ZM38.53,69.1a3.65,3.65,0,0,0-.59-2,3.66,3.66,0,0,0-5.61-.63,3.66,3.66,0,0,0-1,1.86,3.64,3.64,0,0,0,1.49,3.77,3.62,3.62,0,0,0,2,.65,3.71,3.71,0,0,0,3.72-3.62Zm38.41,1.26H65.39c-.84,3.55-1.72,7-3.69,10.16C66.26,80.64,74.6,75.05,76.94,70.36Zm-28.64-27a32.37,32.37,0,0,1,3.86-10.43A24.69,24.69,0,0,0,36.53,43.36ZM43.23,82.43a8.47,8.47,0,0,0-8.7-7.26,8.31,8.31,0,0,0-7.94,7.26ZM87.17,38.51a8.44,8.44,0,0,0-8.7-7.25,8.32,8.32,0,0,0-8,7.25Zm-6,17.09a21.32,21.32,0,0,0-1.43-6.75c-.83.52-1.51,1-2.27,1.43a3,3,0,0,1-1.57.51,3.11,3.11,0,0,1-1.61-.38,3,3,0,0,1-1.19-1.16,3.09,3.09,0,0,1-.42-1.6V46H65.92c.27,3.24.53,6.41.8,9.62ZM47.77,67.8c-.27-3.24-.52-6.41-.75-9.58H32.41l.8,4.83c3.93-.35,6.25.89,7.77,4.75Zm15,2.59h-13a6.19,6.19,0,0,1,.87,4.2c-.13.86-.31,1.69-.44,2.55s-.3,2-.46,3.15c1.87.32,3.61.61,5.34.93a4.12,4.12,0,0,0,4.66-2.33A27.65,27.65,0,0,0,62.79,70.39Zm2.76-27c-1.33-3.23-1.29-6.7-2.19-10.15l-5.53-.76a3.38,3.38,0,0,0-3.38,1.6A17.3,17.3,0,0,0,52,39.27c-.41,1.33-.75,2.68-1.13,4.12Zm1.19,14.79c-.27,3.24-.54,6.39-.82,9.6H78.55a21.77,21.77,0,0,0,2.58-9.6ZM47.77,46H35.07a23.7,23.7,0,0,0-2.54,9.58H46.94c.28-3.23.55-6.36.83-9.58Zm15.64,0H50.49a39,39,0,0,0-.75,9.56H64.26C64,52.25,63.69,49.13,63.41,46Zm.86,12.25H49.5a68.9,68.9,0,0,0,1,9.6H63.39C63.68,64.58,64,61.46,64.27,58.2ZM23.92,84.89c-.27-5.37,2.13-9,6.57-11.33l-1.8-3.2c-.33,0-.76-.06-1.13-.06-1,0-2-.06-3,0a3.07,3.07,0,0,0-1.32.36,3.37,3.37,0,0,0-1,.87,3.27,3.27,0,0,0-.65,2.59c.54,3.5,1.16,7,1.78,10.49a3.19,3.19,0,0,0,3.19,2.73,22.38,22.38,0,0,0,2.59,0,3.68,3.68,0,0,1,2.4.71c1.79,1.25,3.63,2.43,5.45,3.63.33.22.69.39,1.25.71.76-1.68.06-3.4.53-5h4.43a3.24,3.24,0,0,0,3.37-2.87c.18-.89.33-1.8.49-2.7.42-2.5.86-5,1.26-7.5a3.27,3.27,0,0,0-.49-2.55,3.21,3.21,0,0,0-1-.92,3.11,3.11,0,0,0-1.24-.46,39.57,39.57,0,0,0-4.49,0L39.3,73.53c5,3.08,7.25,7,6.39,11.33ZM75.71,48.48c1.51-1,3-1.83,4.27-2.86,2.07-1.65,4.28-2.65,7-2.2a1.77,1.77,0,0,0,.46,0,3.19,3.19,0,0,0,2-.79,3.22,3.22,0,0,0,1-1.84q1-5.31,1.81-10.64a3.31,3.31,0,0,0,0-1.33,3.43,3.43,0,0,0-.58-1.2,3.22,3.22,0,0,0-1-.86,3.06,3.06,0,0,0-1.28-.38c-1.46-.12-2.92,0-4.27,0-.65,1.17-1.23,2.2-1.79,3.24,4.92,2.93,7.39,7.32,6.35,11.33-4.35.3-20.53.16-21.75-.19-.18-5.16,2.14-8.82,6.62-11.11l-1.86-3.28H68.74a3.27,3.27,0,0,0-1.41.29,3.37,3.37,0,0,0-1.14.87,3.29,3.29,0,0,0-.71,2.72c.54,3.46,1.15,6.9,1.77,10.35a3.17,3.17,0,0,0,1.07,2,3.21,3.21,0,0,0,2.17.79H75C75.48,45.18,74.64,46.85,75.71,48.48Zm-47,19.36c.37-.75.62-1.4,1-2A18.14,18.14,0,0,1,31,64.22c-2.43-9.69-.52-18.48,6.4-25.79S53,28.75,63,30.62v-1.3a5.72,5.72,0,0,1,5.56-5.41h4.21c1.09-3.17,3.16-5.05,6.66-4.87,2.47.14,4.33,1.78,5.51,4.87a34.44,34.44,0,0,0,3.52,0,5.9,5.9,0,0,1,2.72.45,5.87,5.87,0,0,1,3.43,4.11,5.94,5.94,0,0,1,0,2.75c-.7,3.22-1.1,6.5-1.67,9.75A5.64,5.64,0,0,1,87,45.89a4.61,4.61,0,0,1-.91,0,4.57,4.57,0,0,0-2.23.25A4.66,4.66,0,0,0,82,47.4c3.39,10.2,1.87,19.68-5.52,27.68S59.9,85.33,49.33,82.74c-.42,2.15-.6,4.26-2.34,5.74s-3.78,1.46-6,1.35v1.51a3.19,3.19,0,0,1-.37,1.77,3.15,3.15,0,0,1-4.71,1c-1.69-1.13-3.41-2.22-5.06-3.39a3.76,3.76,0,0,0-2.68-.83,14,14,0,0,1-1.83,0,5.61,5.61,0,0,1-5.44-4.48c-.7-3.64-1.33-7.29-1.84-11A5.65,5.65,0,0,1,19.2,72a5.76,5.76,0,0,1,1.19-2.15,5.84,5.84,0,0,1,2-1.45,5.7,5.7,0,0,1,2.41-.47C26.14,67.8,27.46,67.84,28.73,67.84Z"/><path d="M85.18,75.79l-1.9-1.31a32.17,32.17,0,0,0,4.26-25.8L89.62,48C92.32,54.61,91.37,67.47,85.18,75.79Z"/><path d="M26.12,64.91a3.08,3.08,0,0,1-.48.32c-.53.16-1.07.29-1.59.44-2.71-6.8-1.64-19.64,4.47-27.74l1.9,1.29A32.09,32.09,0,0,0,26.12,64.91Z"/><path d="M74.47,83.29l1.38,2a34.25,34.25,0,0,1-25.28,5.16c.07-.52.1-.92.18-1.3s.17-.67.29-1.11A32.05,32.05,0,0,0,74.47,83.29Z"/><path d="M61.85,23.15c-.08.76-.16,1.46-.25,2.27a32.26,32.26,0,0,0-22.38,5l-1.29-1.87C43.6,24.15,54,21.52,61.85,23.15Z"/><path d="M33.61,37.33a3.68,3.68,0,0,1-3.54-4.42,3.69,3.69,0,0,1,1-1.87,3.79,3.79,0,0,1,1.89-1,3.68,3.68,0,0,1,3.74,1.61,3.68,3.68,0,0,1,.59,2,3.69,3.69,0,0,1-3.71,3.62Z"/><path d="M83.7,80a3.66,3.66,0,0,1-6.24,2.6,3.59,3.59,0,0,1-1-1.87,3.66,3.66,0,0,1,6.17-3.32A3.75,3.75,0,0,1,83.7,80Z"/></svg>