<svg id="Capa_1" data-name="Capa 1" xmlns="http://www.w3.org/2000/svg" viewBox="0 0 31.9 23.97"><defs><style>.cls-1{fill:#1f1f44;}</style></defs><path class="cls-1" d="M17.18,15.6a.28.28,0,0,0-.28.27h0a.28.28,0,0,0,.28.27.27.27,0,0,0,.27-.27h0A.27.27,0,0,0,17.18,15.6Z"/><path class="cls-1" d="M21.5,5.33H12.85A2.69,2.69,0,0,0,10.17,8v8.65a2.69,2.69,0,0,0,2.68,2.68h4.33a.28.28,0,0,0,.27-.28V16.94a.27.27,0,0,0-.27-.27.28.28,0,0,0-.28.27v1.85h-4a2.14,2.14,0,0,1-2.13-2.13V8a2.14,2.14,0,0,1,2.13-2.13H21.5A2.13,2.13,0,0,1,23.63,8v8.65a2.13,2.13,0,0,1-2.13,2.13H19.75V14h1.58a.27.27,0,0,0,.28-.24l.19-2a.24.24,0,0,0-.07-.21.25.25,0,0,0-.2-.09H19.75v-1c0-.18.06-.25.22-.25h1.55a.27.27,0,0,0,.27-.27V8a.27.27,0,0,0-.27-.27h-2a2.41,2.41,0,0,0-2.08.93,2.9,2.9,0,0,0-.5,1.66v1.15H15.56a.27.27,0,0,0-.27.28v1.94a.27.27,0,0,0,.27.27H16.9v.78a.29.29,0,0,0,.28.28.28.28,0,0,0,.27-.28V13.69a.28.28,0,0,0-.27-.28H15.84V12h1.34a.27.27,0,0,0,.27-.27V10.32a1.88,1.88,0,0,1,2-2.05h1.77V9.63H20a.73.73,0,0,0-.77.8v1.3a.28.28,0,0,0,.28.28h1.75l-.14,1.4H19.48a.28.28,0,0,0-.28.28v5.37a.28.28,0,0,0,.28.28h2a2.69,2.69,0,0,0,2.68-2.68V8A2.68,2.68,0,0,0,21.5,5.33Z"/><path class="cls-1" d="M22.27,4.19H12.08A3.15,3.15,0,0,0,8.92,7.31V17.36a3.15,3.15,0,0,0,3.16,3.12h6.45c.18,0,0-.64,0-.64H12.08a2.5,2.5,0,0,1-2.51-2.48v-10a2.51,2.51,0,0,1,2.51-2.49H22.27a2.51,2.51,0,0,1,2.52,2.49V17.36a2.5,2.5,0,0,1-2.52,2.48H18.53s-.18.64,0,.64h3.74a3.15,3.15,0,0,0,3.16-3.12v-10A3.15,3.15,0,0,0,22.27,4.19Z"/><path class="cls-1" d="M11.76,8.13a.28.28,0,0,0-.27.28v2.28a.27.27,0,1,0,.54,0V8.41A.28.28,0,0,0,11.76,8.13Z"/><path class="cls-1" d="M11.76,11.61a.27.27,0,0,0-.27.27h0a.27.27,0,1,0,.54,0h0A.27.27,0,0,0,11.76,11.61Z"/></svg>