<svg id="Capa_1" data-name="Capa 1" xmlns="http://www.w3.org/2000/svg" viewBox="0 0 113.68 113.79"><defs><style>.cls-1{fill:#1f1f44;}</style></defs><path class="cls-1" d="M77,71.15a1.19,1.19,0,1,1-1.19,1.18A1.19,1.19,0,0,1,77,71.15Zm0,4.75a3.57,3.57,0,1,0-3.56-3.57A3.57,3.57,0,0,0,77,75.9Z"/><path class="cls-1" d="M91.28,73.52h-.07a4.7,4.7,0,0,0-3.31,8l0,0-1.68,1.68,0,0a4.7,4.7,0,0,0-8,3.32v.06H75.84v-.06a4.71,4.71,0,0,0-8-3.32l0,0-1.61-1.61a3.21,3.21,0,0,0,.16-1,3.47,3.47,0,0,0-.8-2.22,15.22,15.22,0,0,1,3.25-5.06A8.31,8.31,0,1,0,77,64l-.34,0a15.72,15.72,0,0,0,1.49-6h0v.07a4.7,4.7,0,0,0,8,3.31l0-.05L88,63.09l0,0a4.71,4.71,0,0,0,3.31,8h.07ZM62.78,86.58H50.9a1.19,1.19,0,0,1,0-2.37H62.78a1.19,1.19,0,1,1,0,2.37Zm-5.94,4.75A4.87,4.87,0,0,1,52.66,89H61A4.88,4.88,0,0,1,56.84,91.33Zm-33.33,0a.84.84,0,0,1-1.11-.76.72.72,0,0,1,.06-.29l1.19-3.1,3,3Zm4.1-14.44,9.29,9.29-7.87,3-4.45-4.45ZM41.8,70.25,33.09,79l-4.26-4.26,9.06-9.06A26.84,26.84,0,0,0,41.8,70.25Zm9.1-16.92V56.9a3.57,3.57,0,0,0,3.57,3.56H64a1.19,1.19,0,0,1,0,2.37H52.09a3.57,3.57,0,0,0,0,7.13h2.38a1.18,1.18,0,0,1,1.18,1.19v5.93H50.9a4.05,4.05,0,0,0-.7.07c-1.35-3.33-3.68-5.62-6-7.83-3.3-3.21-6.41-6.25-6.41-12.42a19.48,19.48,0,0,1,.37-3.57ZM22.4,46.21a4.75,4.75,0,0,1,9.5,0h2.38a7.12,7.12,0,0,0-6.82-7.11,9.61,9.61,0,0,1-.31-2.39,9.49,9.49,0,0,1,17.78-4.63,9.49,9.49,0,0,0-4.65,7.15,4.75,4.75,0,0,0-3.63,4.6H39a2.38,2.38,0,0,1,4.75,0h2.37a4.72,4.72,0,0,0-3.48-4.55,7.12,7.12,0,0,1,14.17,1,7,7,0,0,1-.26,1.83,5.93,5.93,0,0,0-3.3,5.3h2.37A3.57,3.57,0,1,1,59.22,51H27.15A4.75,4.75,0,0,1,22.4,46.21ZM34.77,80.65l8.73-8.73a21.51,21.51,0,0,1,3.82,4.7L39,84.9Zm14.95,0a1.18,1.18,0,0,1,1.18-1.19H62.78a1.19,1.19,0,1,1,0,2.37H50.9A1.18,1.18,0,0,1,49.72,80.65ZM75.84,56.9c0,6.17-3.11,9.21-6.4,12.42-2.27,2.21-4.6,4.5-6,7.83a4,4,0,0,0-.7-.07H58V71.15a3.57,3.57,0,0,0-3.56-3.57H52.09a1.19,1.19,0,1,1,0-2.37H64a3.57,3.57,0,0,0,0-7.13h-9.5a1.18,1.18,0,0,1-1.19-1.18V53.33h5.94a5.94,5.94,0,0,0,0-11.87h-.1A8.41,8.41,0,0,0,58.94,38,19.1,19.1,0,0,1,75.84,56.9ZM72.28,31.26l4.26,4.26L71.05,41a21.31,21.31,0,0,0-5.11-3.41Zm11.79-8.8a7.21,7.21,0,0,1,5.1,12.31l-1.45,1.45L77.52,26,79,24.57A7.16,7.16,0,0,1,84.07,22.46ZM74,29.58l1.88-1.88L86,37.9l-1.89,1.88ZM72.73,42.69l5.49-5.49,4.26,4.26L76.13,47.8A21.77,21.77,0,0,0,72.73,42.69ZM71.3,70.82a35,35,0,0,0,3.71-4,5.78,5.78,0,0,1,2-.37,6,6,0,1,1-5.73,4.42Zm17.79-3.5a2.29,2.29,0,0,1,.49-2.5l1.73-1.73-5-5-1.73,1.73a2.29,2.29,0,0,1-2.54.47,2.26,2.26,0,0,1-1.41-2.1V55.71H78.16a21,21,0,0,0-1.06-5.52L90.85,36.45A9.59,9.59,0,1,0,77.29,22.89L63.57,36.62a21.26,21.26,0,0,0-5.61-1,9.48,9.48,0,0,0-8.24-4.8,9.74,9.74,0,0,0-2.61.37,11.85,11.85,0,0,0-22.33,5.57,12,12,0,0,0,.31,2.68,7.12,7.12,0,0,0,2.06,13.94h8.62a21.33,21.33,0,0,0-.3,3.57,16.26,16.26,0,0,0,1.26,6.55L26.14,74.05l-5.9,15.32a3.2,3.2,0,0,0,3,4.34,3.25,3.25,0,0,0,1.15-.21l15.32-5.9,7.75-7.75A3.43,3.43,0,0,0,48.27,83,3.53,3.53,0,0,0,50,88.83a7.23,7.23,0,0,0,13.68,0,3.55,3.55,0,0,0,2.66-3.43c0-.09,0-.18,0-.26l1.47,1.47,1.73-1.73a2.3,2.3,0,0,1,2.54-.46,2.27,2.27,0,0,1,1.41,2.1V89h7.12V86.52a2.33,2.33,0,0,1,4-1.64l1.73,1.73,5-5-1.73-1.73a2.32,2.32,0,0,1,1.63-3.94h2.44V68.77H91.21A2.29,2.29,0,0,1,89.09,67.32Z"/></svg>