<svg id="Capa_1" data-name="Capa 1" xmlns="http://www.w3.org/2000/svg" viewBox="0 0 113.68 113.79"><defs><style>.cls-1{fill:#ee4498;}.cls-2{fill:#1f1f44;}</style></defs><path class="cls-1" d="M63.71,20.83H39.17a7.88,7.88,0,0,0-7.88,7.88V44a7.88,7.88,0,0,0,7.88,7.89H42.5l2,4.41a1,1,0,0,0,1.82,0l2-4.41H63.71A7.89,7.89,0,0,0,71.6,44V28.71A7.88,7.88,0,0,0,63.71,20.83Z"/><path class="cls-1" d="M44.89,46.42a6.12,6.12,0,0,1-6.12-6.12V23.53a6.09,6.09,0,0,1,.63-2.7h-.23a7.88,7.88,0,0,0-7.88,7.88V44a7.88,7.88,0,0,0,7.88,7.89H42.5l2,4.41a1,1,0,0,0,1.82,0l2-4.41H63.71a7.9,7.9,0,0,0,7.51-5.46Z"/><path class="cls-2" d="M68.86,69.48l11-9.29a2,2,0,0,1,2.84.23,2,2,0,0,1,.47,1.47,2,2,0,0,1-.7,1.37L75.69,69a2,2,0,0,1-1.27.47Zm3.62-11.2a2,2,0,0,1,2.79,2.9l-9,7.6a2.17,2.17,0,0,0,0-.26,4.94,4.94,0,0,0-1.6-3.65Zm19.24,2.65a4.2,4.2,0,0,0-5.92-.49l-.56.48a4.2,4.2,0,0,0-6.84-2.4l-.5.43a4.21,4.21,0,0,0-6.83-2.34l-8.4,7.12a4.64,4.64,0,0,0-1.35-.19H46.23A17.87,17.87,0,0,0,30.08,73.75l-.52,1.09L21.2,85.39a1.09,1.09,0,1,0,1.72,1.35L31.35,76.1a.8.8,0,0,0,.13-.21l.57-1.2a15.77,15.77,0,0,1,14.18-9H61.32a2.81,2.81,0,0,1,2.8,2.8,2.82,2.82,0,0,1-2.8,2.8H51.49a1.09,1.09,0,0,0,0,2.18h9.73a4.89,4.89,0,0,0,3.58-1.42,3.88,3.88,0,0,0,.39-.42h9.23a4.15,4.15,0,0,0,2.69-1l10.1-8.56a2,2,0,0,1,3.31,1.7,2,2,0,0,1-.7,1.37L73.87,78.7A9.83,9.83,0,0,1,68.63,81l-2.88.34a1.11,1.11,0,0,0-1,1.22,1.09,1.09,0,0,0,1.09,1H66l2.88-.34a12.16,12.16,0,0,0,6.39-2.79l16-13.52A4.14,4.14,0,0,0,92.7,64,4.2,4.2,0,0,0,91.72,60.93Z"/><path class="cls-2" d="M61.09,81.89,50.81,83.13a1,1,0,0,0-.7.39L42.8,92.27a1.08,1.08,0,0,0,.13,1.53,1.09,1.09,0,0,0,1.54-.13l7-8.42,9.85-1.19a1.09,1.09,0,0,0,1-1.21A1.11,1.11,0,0,0,61.09,81.89Z"/><path class="cls-2" d="M39.17,53h2.62l1.67,3.77a2.09,2.09,0,0,0,3.82,0L49,53h5.6a1.09,1.09,0,1,0,0-2.18H48.24a1.09,1.09,0,0,0-1,.65l-1.87,4.21L43.5,51.44a1.09,1.09,0,0,0-1-.65H39.17A6.8,6.8,0,0,1,32.38,44V28.71a6.8,6.8,0,0,1,6.79-6.79H63.71a6.8,6.8,0,0,1,6.8,6.79V44a6.81,6.81,0,0,1-6.8,6.8h-4.5a1.09,1.09,0,1,0,0,2.18h4.5a9,9,0,0,0,9-9V28.71a9,9,0,0,0-9-9H39.17a9,9,0,0,0-9,9V44A9,9,0,0,0,39.17,53Z"/><path class="cls-2" d="M44.6,30.16a1.09,1.09,0,0,0-1.52.26,10.22,10.22,0,1,0,17.57,1.45l3.5-3.34A1.09,1.09,0,1,0,62.64,27l-3.17,3a10.19,10.19,0,0,0-8-3.91,10.06,10.06,0,0,0-4.38,1A1.09,1.09,0,1,0,48,29a8,8,0,0,1,9.88,2.47L51.07,38l-1.38-1.37a1.09,1.09,0,0,0-1.54,1.54l2.13,2.13a1.09,1.09,0,0,0,1.52,0L59,33.48a8.18,8.18,0,0,1,.5,2.81,8,8,0,0,1-16.06,0,7.92,7.92,0,0,1,1.46-4.61A1.1,1.1,0,0,0,44.6,30.16Z"/></svg>