<svg id="Capa_1" data-name="Capa 1" xmlns="http://www.w3.org/2000/svg" viewBox="0 0 31.9 42.19"><defs><style>.cls-1{fill:none;stroke:#000;stroke-linecap:round;stroke-linejoin:round;}</style></defs><path d="M17.57,31a2.36,2.36,0,0,1-2.36,2.36,2.4,2.4,0,0,1-1.67-.69A2.36,2.36,0,0,1,12.85,31V28.14a2.36,2.36,0,0,1,2.36-2.35,2.32,2.32,0,0,1,1.67.69,2.36,2.36,0,0,1,.69,1.66Zm-2.36-6.13a3.31,3.31,0,0,0-3.3,3.3V31a3.27,3.27,0,0,0,1,2.33,3.3,3.3,0,0,0,2.33,1,3.31,3.31,0,0,0,3.3-3.3V28.14a3.3,3.3,0,0,0-1-2.33A3.27,3.27,0,0,0,15.21,24.84Zm0,1.89a.47.47,0,0,0-.33.14.44.44,0,0,0-.14.33v.94a.48.48,0,0,0,.14.34.51.51,0,0,0,.33.13.47.47,0,0,0,.33-.13.48.48,0,0,0,.14-.34V27.2a.48.48,0,0,0-.47-.47Z"/><polygon class="cls-1" points="17.57 23.14 12.85 23.14 15.21 20.16 15.21 20.16 17.57 23.14"/></svg>