<svg id="Capa_1" data-name="Capa 1" xmlns="http://www.w3.org/2000/svg" viewBox="0 0 113.68 113.79"><defs><style>.cls-1{fill:#1f1f44;}</style></defs><path class="cls-1" d="M63.64,90.17a7.57,7.57,0,0,0-3.17-3.38,5,5,0,1,0-7.25,0A7.59,7.59,0,0,0,50,90.17a8.81,8.81,0,1,1,13.6,0Zm-9.31-6.85a2.52,2.52,0,1,1,2.51,2.51A2.51,2.51,0,0,1,54.33,83.32ZM52,91.94a5,5,0,0,1,9.62,0,8.75,8.75,0,0,1-9.62,0Zm4.81-18.69A11.33,11.33,0,1,0,68.16,84.57,11.34,11.34,0,0,0,56.84,73.25Z"/><path class="cls-1" d="M56.84,38a8.81,8.81,0,1,1,8.81-8.8A8.81,8.81,0,0,1,56.84,38ZM53.07,50.61h6.29a1.26,1.26,0,1,1,0,2.51H50.55v2.52h8.81a1.26,1.26,0,1,1,0,2.51H50.55v2.52h8.81a1.26,1.26,0,0,1,0,2.52H50.55V65.7h6.29a1.26,1.26,0,1,1,0,2.52H35.46V52.07l.27-.83a6.55,6.55,0,0,1,2.86-3.56A9.16,9.16,0,0,0,43,39.88V36.77a1.26,1.26,0,0,1,1.26-1.26A3.78,3.78,0,0,1,48,39.28v6.29A5,5,0,0,0,53.07,50.61ZM32.94,68.22H20.36V52L32.94,53ZM56.84,17.9A11.29,11.29,0,0,0,46.32,33.37,6.17,6.17,0,0,0,44.26,33a3.78,3.78,0,0,0-3.77,3.78v3.11a6.62,6.62,0,0,1-3.2,5.64,9.06,9.06,0,0,0-3.94,4.92l0,.09L17.84,49.24V70.73h39a3.75,3.75,0,0,0,3.5-5.17,3.75,3.75,0,0,0,1.81-6.15,3.7,3.7,0,0,0,1-2.51,3.77,3.77,0,0,0-1-2.52,3.72,3.72,0,0,0,1-2.52,3.77,3.77,0,0,0-3.77-3.77H53.07a2.52,2.52,0,0,1-2.52-2.52V39.28a5.35,5.35,0,0,0-.07-.7A11.32,11.32,0,1,0,56.84,17.9Z"/><path class="cls-1" d="M84.52,65.7a8.81,8.81,0,1,1,8.81-8.8A8.82,8.82,0,0,1,84.52,65.7Zm0-20.13A11.33,11.33,0,1,0,95.84,56.9,11.34,11.34,0,0,0,84.52,45.57Z"/><polygon class="cls-1" points="88.29 53.12 88.29 58.15 85.78 58.15 85.78 50.61 83.26 50.61 83.26 58.15 80.75 58.15 80.75 55.64 78.23 55.64 78.23 60.67 90.81 60.67 90.81 53.12 88.29 53.12"/><rect class="cls-1" x="55.58" y="27.96" width="2.52" height="2.52"/><rect class="cls-1" x="60.62" y="27.96" width="2.52" height="2.52"/><rect class="cls-1" x="50.55" y="27.96" width="2.52" height="2.52"/><path class="cls-1" d="M83.45,40l1.68,2.68L87,33.24l-2.47-.49-.67,3.37a32.6,32.6,0,0,0-12.66-10l-1.06,2.28A29.91,29.91,0,0,1,83.45,40Z"/><path class="cls-1" d="M26.05,42.53l2.29,1.06A29.85,29.85,0,0,1,39.9,30.29l2.67-1.68-9.38-1.88-.5,2.46,3.38.68A32.53,32.53,0,0,0,26.05,42.53Z"/><path class="cls-1" d="M30.23,73.84l-1.68-2.68-1.88,9.39,2.47.5.68-3.38a32.57,32.57,0,0,0,12.65,10l1.07-2.28A29.82,29.82,0,0,1,30.23,73.84Z"/><path class="cls-1" d="M87.63,71.27,85.35,70.2A30,30,0,0,1,73.79,83.51l-2.68,1.68,9.39,1.87L81,84.6l-3.37-.68A32.57,32.57,0,0,0,87.63,71.27Z"/></svg>