<svg id="Capa_1" data-name="Capa 1" xmlns="http://www.w3.org/2000/svg" viewBox="0 0 31.9 42.19"><path d="M17.91,30.51a2.36,2.36,0,0,1-.69,1.67,2.4,2.4,0,0,1-1.67.69,2.36,2.36,0,0,1-2.36-2.36V27.68a2.36,2.36,0,0,1,2.36-2.35,2.4,2.4,0,0,1,1.67.69,2.36,2.36,0,0,1,.69,1.66Zm-2.36-6.13a3.27,3.27,0,0,0-2.33,1,3.3,3.3,0,0,0-1,2.33v2.83a3.31,3.31,0,0,0,1,2.34,3.26,3.26,0,0,0,2.33,1,3.29,3.29,0,0,0,3.3-3.3V27.68a3.31,3.31,0,0,0-3.3-3.3Zm0,1.89a.44.44,0,0,0-.33.14.47.47,0,0,0-.14.33v.94a.48.48,0,0,0,.14.34.44.44,0,0,0,.33.14.47.47,0,0,0,.33-.14.48.48,0,0,0,.14-.34v-.94a.48.48,0,0,0-.47-.47Z"/><path d="M14.37,19.54v1.6h.31V19.87h2.47v-.33Zm0-1.69v1.6h.31V18.18h2.47v-.33Zm.24-1.71a1.16,1.16,0,0,1,2.31,0,1.16,1.16,0,0,1-2.31,0Zm-.31,0a1.46,1.46,0,1,0,1.46-1.46A1.41,1.41,0,0,0,14.3,16.14Zm2.55-3.09v.46c0,.32-.06.67-.46.67s-.46-.47-.46-.84v-.29Zm-2.48-.33v.33h1.25v.42l-1.25.76v.4l1.28-.79a.74.74,0,0,0,.74.7c.68,0,.76-.57.76-1.11v-.71Zm2.42-.26a1.2,1.2,0,0,0,.43-1,1.46,1.46,0,0,0-2.92,0,1.21,1.21,0,0,0,.49,1l.21-.24a1,1,0,0,1-.39-.81,1.08,1.08,0,0,1,1.15-1.06,1.11,1.11,0,0,1,1.16,1.06.88.88,0,0,1-.34.7Zm.11-2.55a1,1,0,0,0,.32-.78.83.83,0,0,0-.8-.94c-.46,0-.64.29-.76.69s-.23.72-.57.72-.48-.32-.48-.6a.65.65,0,0,1,.31-.59l-.24-.29A1,1,0,0,0,14.3,9c0,.5.26,1,.81,1s.69-.4.83-.84.25-.58.51-.58.47.3.47.59a.58.58,0,0,1-.26.51Z"/></svg>