<svg id="Capa_1" data-name="Capa 1" xmlns="http://www.w3.org/2000/svg" viewBox="0 0 108.5368 68.7158"><defs><style>.cls-1{fill:#70af50;fill-rule:evenodd;}.cls-2{fill:#6d6e70;}</style></defs><path class="cls-1" d="M87.124,34.0062a1.8271,1.8271,0,1,1-2.4853.7074,1.827,1.827,0,0,1,2.4853-.7074M47.4705,43.7989a13.2411,13.2411,0,0,0,22.5748-8.416l.0022-.0347.0009-.0165L70.06,35.14l.0006-.0143.0011-.0207.0021-.048.0011-.0219L70.0661,35l0-.012.0013-.023.0011-.035.0006-.0108.0007-.0245.0013-.0352v-.0093l.0008-.0259.001-.0353,0-.0079.0006-.0273.0009-.0352v-.0065l.0006-.0291.0005-.0352,0-.005,0-.0306,0-.0354,0-.0035,0-.0321v-.0372l0-.0338v-.0358a1.421,1.421,0,1,1,2.842,0v.0418c0,4.99-.0431,10-.0735,14.9975a1.4153,1.4153,0,1,1-2.8306,0q.0147-2.4952.03-4.99c0-.0721.0009-.144.0015-.2161h-.0006v-.0027a.22.22,0,0,0-.0128-.0728.2137.2137,0,0,0-.2009-.1407c-.1331,0-.2036.1273-.2746.2206l-.0384.05-.0116.0149-.05.0639-.0345.0432-.0165.02-.0011.0015-.08.0991-.0213.0262-.0517.0632-.0256.031-.0263.0316-.0523.0623-.0211.0251-.0315.0372-.0529.0619-.0165.0191-.09.104-.012.0134-.042.0478-.054.0609-.0069.0071-.0477.0533-.0545.06-.002.002-.0532.0581-.052.0559-.0034.0038-.0557.0593-.0474.05-.0084.0089-.0561.0588-.0431.0443-.1078.1109,0,0-.0193.02-.0574.0576-.033.0326-.0247.0249-.058.0571-.0279.0273-.03.0295-.0586.0565-.0228.0219-.036.0344-.0591.056-.0176.0165-.0419.0393-.06.0553-.0121.0111-.1081.0986-.0068.006-.1146.1028-.0011.001-.06.0528-.0569.05-.0044.0041-.0618.0532-.0515.0439-.01.0091-.1082.0912-.0164.0137-.0628.0521-.0406.0333-.0223.0184-.0632.0514-.0352.0283-.0282.0229-.064.0507-.03.0234-.0343.027-.0643.05-.0237.0185-.041.0312-.0649.05-.0178.0139-.0473.0356-.065.0489-.0123.0087-.0534.04-.066.0484-.0059.0044-.06.0436-.0662.0475a16.0767,16.0767,0,0,1-21.8412-2.9958,16.3278,16.3278,0,0,1-1.8727-2.9024.487.487,0,0,0-.0384-.0686.2149.2149,0,0,0-.3519.0107.407.407,0,0,0-.022.0425,16.0835,16.0835,0,0,1-30.47-6.9209c-.0011-.0842-.0017-.1676-.002-.2516l-.0816-25.56a1.4154,1.4154,0,1,1,2.8308,0l.03,9.2675a.2126.2126,0,0,0,.2124.2319H29.0929a1.4925,1.4925,0,0,1,1.4152,1.4651,1.4154,1.4154,0,0,1-1.4152,1.4154H14.61c-.0228,0-.0437,0-.0662.002a.2126.2126,0,0,0-.1905.1908c0,.0134,0,.0252,0,.0385l.0421,13.0446a13.2477,13.2477,0,0,0,26.0657,3.229c.94-3.6193-.2373-5.7116,1.79-10.1329l.0015-.0024q.1919-.4119.4075-.8127a16.0767,16.0767,0,0,1,25.6134-3.6933,1.4171,1.4171,0,1,1-2.0209,1.9872,13.25,13.25,0,0,0-18.7822-.0486A13.4177,13.4177,0,0,0,47.4705,43.7989ZM75.8052,31.6146V6.6717a1.5456,1.5456,0,0,1,1.4971-1.4154,1.4155,1.4155,0,0,1,1.4154,1.4154q-.0366,11.15-.073,22.3c.0107.12-.0645.6361.5506.31q.4863-.2568.9427-.55a13.1187,13.1187,0,0,0,4.3363-4.5659,13.3162,13.3162,0,0,0,1.0972-2.4607,1.4184,1.4184,0,0,1,2.6978.877A16.0694,16.0694,0,0,1,77.6386,32.9768,1.4251,1.4251,0,0,1,75.8052,31.6146Zm3.302,12.7073c-.132-.1335-.205-.2532-.2647-.2623-.0807-.0273-.1728.0054-.193.1848l.0185,5.2347a1.4154,1.4154,0,0,1-2.8308,0L75.803,38.4708a2.1892,2.1892,0,0,1,.0741-.7827,1.421,1.421,0,0,1,2.7.0262A13.2416,13.2416,0,0,0,95.2032,46.335a1.4212,1.4212,0,0,1,.8592,2.7094,16.1,16.1,0,0,1-16.9552-4.7225Zm14.5812-6.96a1.8271,1.8271,0,1,1-2.4853.7074A1.8268,1.8268,0,0,1,93.6884,37.3617Z"/><path class="cls-2" d="M96.7217,62.0572V57.295l-.8265.1152v4.647ZM92.79,61.2985a1.3008,1.3008,0,0,1-.6233.1693c-.2573,0-.3318-.1015-.3318-.3319,0-.2507.0745-.3252.3454-.3252h.61Zm.8264-1.4159c0-.8264-.3048-1.1921-1.3412-1.1921a4.2991,4.2991,0,0,0-1.1313.1559l.1017.63a4.6076,4.6076,0,0,1,.9144-.1016c.5284,0,.63.1287.63.4944v.3456H91.997c-.6708,0-.962.2573-.962.928,0,.569.2575.9821.86.9821a1.8037,1.8037,0,0,0,.9822-.2912l.0609.2236h.6774Zm-4.5891,1.4837a1.5928,1.5928,0,0,1-.4133.0677.26.26,0,0,1-.2979-.2913V59.4153h.7925l.0542-.657h-.8467v-.9349l-.8264.1151v.82h-.4946v.657h.4946v1.8359c0,.5893.3047.8736.9076.8736a2.29,2.29,0,0,0,.7249-.1286ZM85.02,58.2907v-.955h-.8264v.955Zm0,3.7665V58.7583h-.8264v3.2989ZM81.1626,59.815v.2506c0,.3183-.1626.4472-.5555.4472-.3861,0-.5487-.122-.5487-.4472V59.815c0-.3116.1422-.4607.5487-.4607C81.02,59.3543,81.1626,59.5034,81.1626,59.815Zm-.5555,1.3616c.9213,0,1.3278-.4065,1.3278-1.077v-.3117a1.1331,1.1331,0,0,0-.1151-.5148c.1151-.0339.2506-.0678.3658-.1016v-.4132H81.1694a2.2328,2.2328,0,0,0-.5623-.0678c-.9552,0-1.3141.4132-1.3276,1.0974V60.1a.9583.9583,0,0,0,.4469.8874.6989.6989,0,0,0-.3454.5621c0,.42.1828.5757.65.63.42.0475.5757.0677.9551.1082.2506.0273.3116.061.3116.2642,0,.2169-.1287.2644-.7859.2644a4.5838,4.5838,0,0,1-1.111-.1424L79.3,63.29a4.7978,4.7978,0,0,0,1.2736.1694c1.2327,0,1.49-.2776,1.49-.9821a.6871.6871,0,0,0-.7044-.7994c-.3862-.0408-.5894-.061-.9553-.1016-.1286-.0135-.1828-.0543-.1828-.1423a.3547.3547,0,0,1,.1966-.2642A1.7,1.7,0,0,0,80.6071,61.1766Zm-3.4714-2.8859v-.955h-.8265v.955Zm0,3.7665V58.7583h-.8265v3.2989Zm-4-.9349a1.1692,1.1692,0,0,1-.7383.2981c-.3049,0-.4065-.149-.4065-.42V59.8354c0-.2981.1151-.4405.4132-.4405a3.6733,3.6733,0,0,1,.7316.0881ZM71.1646,60.98c0,.752.3523,1.1447,1.0161,1.1447a1.7369,1.7369,0,0,0,1.0434-.3453l.0811.2777h.657V57.295l-.8263.1152v1.3752a4.5473,4.5473,0,0,0-.8806-.0949c-.7655,0-1.0907.4336-1.0907,1.1651Zm-5.0228,1.0771V59.666c0-.5894-.1965-.9755-.7452-.9755a3.3011,3.3011,0,0,0-1.3208.3455l-.0815-.2777h-.63v3.2989h.8265v-2.29a2.2811,2.2811,0,0,1,.86-.2777c.19,0,.2642.0881.2642.2642v2.3032Zm-6.5807-3.6513c.359-.1963.6368-.3724,1.0161-.6231l-.3252-.5013c-.3454.2507-.6705.4674-.989.6639Zm.779,1.5582v.8874c0,.3724-.1693.5689-.61.5689s-.61-.1965-.61-.5689v-.8874c0-.3727.1692-.5692.61-.5692S60.34,59.5914,60.34,59.9641Zm.8264.86v-.8333c0-.6774-.3048-1.3006-1.436-1.3006s-1.4362.6232-1.4362,1.3006v.8333c0,.6774.3049,1.3,1.4362,1.3S61.1665,61.5018,61.1665,60.8244Zm-5.07-2.5337v-.955H55.27v.955Zm0,3.7665V58.7583H55.27v3.2989Zm-3.79.0676a2.721,2.721,0,0,0,.8061-.1217l-.1016-.6774a2.7977,2.7977,0,0,1-.6843.0881c-.4742,0-.6164-.1424-.6164-.5488v-.9145c0-.4066.1422-.5488.6164-.5488a3.0037,3.0037,0,0,1,.6843.0881l.1016-.6774a2.8413,2.8413,0,0,0-.8061-.1219c-1.0364,0-1.4226.3792-1.4226,1.2667v.9009C50.884,61.7456,51.27,62.1248,52.3066,62.1248Zm-4.3793-.8263a1.3005,1.3005,0,0,1-.6233.1693c-.2572,0-.3318-.1015-.3318-.3319,0-.2507.0746-.3252.3454-.3252h.61Zm.8264-1.4159c0-.8264-.3047-1.1921-1.3412-1.1921a4.2983,4.2983,0,0,0-1.1312.1559l.1016.63a4.6086,4.6086,0,0,1,.9145-.1016c.5283,0,.63.1287.63.4944v.3456h-.7925c-.6707,0-.962.2573-.962.928,0,.569.2576.9821.86.9821a1.8037,1.8037,0,0,0,.9822-.2912l.0609.2236h.6774ZM43.345,62.1248a2.722,2.722,0,0,0,.8061-.1217l-.1017-.6774a2.7969,2.7969,0,0,1-.6842.0881c-.4742,0-.6164-.1424-.6164-.5488v-.9145c0-.4066.1422-.5488.6164-.5488a3.0022,3.0022,0,0,1,.6842.0881l.1017-.6774a2.8418,2.8418,0,0,0-.8061-.1219c-1.0365,0-1.4226.3792-1.4226,1.2667v.9009C41.9224,61.7456,42.3085,62.1248,43.345,62.1248Zm-3.62-3.8341v-.955H38.898v.955Zm0,3.7665V58.7583H38.898v3.2989Zm-3.1395,0V59.666c0-.5894-.1965-.9755-.7453-.9755a3.3007,3.3007,0,0,0-1.3208.3455l-.0814-.2777h-.63v3.2989h.8264v-2.29a2.281,2.281,0,0,1,.86-.2777c.19,0,.2641.0881.2641.2642v2.3032Zm-7.9018-3.2989V61.15c0,.5894.1965.9753.7452.9753a3.304,3.304,0,0,0,1.3209-.3453l.0814.2777h.63V58.7583h-.8265v2.29a2.2789,2.2789,0,0,1-.86.2779c-.19,0-.2642-.0881-.2642-.2644v-2.303Zm-4.23,3.2989v-2.29a2.1854,2.1854,0,0,1,.86-.2777c.19,0,.2642.0881.2642.2642v2.3032h.8264V59.666c0-.5894-.1964-.9755-.7451-.9755a3.2365,3.2365,0,0,0-1.3277.3522.6264.6264,0,0,0-.6233-.3522,3.3011,3.3011,0,0,0-1.3208.3455l-.0814-.2777h-.63v3.2989h.8264v-2.29a2.281,2.281,0,0,1,.86-.2777c.19,0,.2642.0881.2642.2642v2.3032Zm-5.8018-2.0931v.8874c0,.3724-.1693.5689-.61.5689s-.61-.1965-.61-.5689v-.8874c0-.3727.1693-.5692.61-.5692S18.6513,59.5914,18.6513,59.9641Zm.8264.86v-.8333c0-.6774-.3047-1.3006-1.4359-1.3006s-1.4362.6232-1.4362,1.3006v.8333c0,.6774.3048,1.3,1.4362,1.3S19.4777,61.5018,19.4777,60.8244Zm-5.6864,1.3a2.7208,2.7208,0,0,0,.806-.1217l-.1016-.6774a2.7975,2.7975,0,0,1-.6842.0881c-.4742,0-.6164-.1424-.6164-.5488v-.9145c0-.4066.1422-.5488.6164-.5488a3.0029,3.0029,0,0,1,.6842.0881l.1016-.6774a2.8406,2.8406,0,0,0-.806-.1219c-1.0365,0-1.4227.3792-1.4227,1.2667v.9009C12.3686,61.7456,12.7548,62.1248,13.7913,62.1248Z"/></svg>